<svg xmlns="http://www.w3.org/2000/svg" width="164.43" height="170.361" viewBox="0 0 164.43 170.361">
  <g id="illustration_Email" transform="translate(-96.684 -64.807)">
    <g id="Group_126" data-name="Group 126" transform="translate(68.659 66.921)">
      <circle id="Ellipse_84" data-name="Ellipse 84" cx="81" cy="81" r="81" transform="translate(30.455 -1)" fill="#e0eef8"/>
      <g id="Group_109" data-name="Group 109" transform="translate(48.351 26.946)">
        <path id="Path_484" data-name="Path 484" d="M302.159,229.219v66.489c0,.081,0,.162-.008.246,0,.039,0,.077-.008.116s0,.073-.008.112c0,.015,0,.031,0,.046s-.008.05-.012.073c0,.058-.015.115-.023.173s-.019.112-.031.166a.579.579,0,0,1-.019.081.176.176,0,0,1-.012.062.587.587,0,0,1-.019.081c-.012.05-.027.1-.039.146a.069.069,0,0,1-.008.027c-.027.084-.05.169-.081.25a.014.014,0,0,1,0,.012c-.015.042-.03.084-.046.123s-.031.073-.043.108a.166.166,0,0,0-.011.031c-.046.1-.093.211-.147.312-.015.031-.034.069-.054.1s-.039.065-.058.1-.034.065-.058.1c-.039.065-.081.131-.124.192-.027.043-.053.077-.077.116-.066.085-.127.169-.2.25-.05.062-.1.119-.15.173s-.1.112-.158.166c-.023.027-.05.05-.077.077a.56.56,0,0,1-.073.065c-.027.027-.058.054-.089.081-.008.008-.019.015-.027.023-.074.065-.15.127-.227.185a.1.1,0,0,0-.023.019c-.062.042-.123.089-.189.131-.023.015-.042.031-.062.043-.035.023-.069.046-.1.065a.656.656,0,0,1-.084.05c-.031.02-.062.039-.093.054a4.305,4.305,0,0,1-.678.312c-.015,0-.027.012-.042.015s-.034.012-.05.015c-.054.02-.108.039-.166.054-.1.031-.192.054-.289.077l-.15.035a.794.794,0,0,1-.1.015l-.12.023c-.007,0-.011,0-.015,0l-.1.011c-.015,0-.031,0-.046,0l-.084.011c-.016,0-.031,0-.05,0l-.177.012c-.084,0-.169.008-.254.008H179.936c-.085,0-.17,0-.254-.008l-.177-.012a1.63,1.63,0,0,1-.2-.023.94.94,0,0,1-.112-.015c-.092-.012-.185-.031-.273-.05a.518.518,0,0,1-.077-.019c-.1-.023-.192-.046-.289-.077-.058-.019-.112-.034-.166-.054a5.145,5.145,0,0,1-.747-.327l-.173-.1c-.065-.039-.131-.081-.193-.123a4.8,4.8,0,0,1-1.013-.921,3.1,3.1,0,0,1-.2-.254,4.554,4.554,0,0,1-.528-.947c-.03-.077-.061-.162-.092-.243s-.054-.166-.081-.25-.046-.17-.066-.254-.035-.158-.05-.239c0-.011,0-.027-.008-.038-.011-.077-.023-.158-.031-.235a.031.031,0,0,1,0-.02c-.008-.061-.012-.119-.015-.181-.012-.119-.015-.239-.015-.362V229.219a4.741,4.741,0,0,1,1.733-3.671.275.275,0,0,1,.031-.023l.246-.188a4.719,4.719,0,0,1,2.747-.875H297.4a3.2,3.2,0,0,1,.339.016.167.167,0,0,1,.062,0c.108.008.219.019.323.034l.073.012c.092.015.185.035.273.058a.483.483,0,0,1,.069.015c.112.027.22.058.327.092s.2.069.3.108a3.8,3.8,0,0,1,.4.189,2.232,2.232,0,0,1,.216.116,3.025,3.025,0,0,1,.354.231s0,0,0,0l.247.188a.256.256,0,0,1,.03.023,2.378,2.378,0,0,1,.181.158c.046.039.089.081.131.123a4.173,4.173,0,0,1,.369.408q.081.1.15.2a4.463,4.463,0,0,1,.5.886c.039.084.073.173.108.262,0,0,0,.008,0,.011a4.361,4.361,0,0,1,.135.435c.019.073.035.143.05.216.012.058.023.112.031.17s.02.115.027.173a1.874,1.874,0,0,1,.023.208,1.358,1.358,0,0,1,.012.177C302.155,229.053,302.159,229.138,302.159,229.219Z" transform="translate(-175.179 -179.897)" fill="#dfe5ea"/>
        <path id="Path_485" data-name="Path 485" d="M302.217,173.98H175.807a4.759,4.759,0,0,1,1.448-2.045.276.276,0,0,1,.031-.023l.246-.188L236.1,127.266a4.813,4.813,0,0,1,5.827,0l58.562,44.457s0,0,0,0l.247.188a.254.254,0,0,1,.03.023,2.363,2.363,0,0,1,.181.158c.046.039.089.081.131.123a4.171,4.171,0,0,1,.369.408q.081.1.15.2a4.464,4.464,0,0,1,.5.886c.039.084.073.173.108.262C302.213,173.973,302.217,173.977,302.217,173.98Z" transform="translate(-175.522 -126.284)" fill="#007ad1"/>
        <path id="Rectangle_177" data-name="Rectangle 177" d="M18.759,0h72.8a18.759,18.759,0,0,1,18.759,18.759v89.849a0,0,0,0,1,0,0H0a0,0,0,0,1,0,0V18.759A18.759,18.759,0,0,1,18.759,0Z" transform="translate(7.549 8.497)" fill="#fff"/>
        <rect id="Rectangle_178" data-name="Rectangle 178" width="85.188" height="5.007" rx="2.504" transform="translate(20.112 27.522)" fill="#e4ecf9"/>
        <rect id="Rectangle_179" data-name="Rectangle 179" width="85.188" height="5.007" rx="2.504" transform="translate(20.112 38.22)" fill="#e4ecf9"/>
        <rect id="Rectangle_180" data-name="Rectangle 180" width="85.188" height="5.007" rx="2.504" transform="translate(20.112 48.917)" fill="#e4ecf9"/>
        <rect id="Rectangle_181" data-name="Rectangle 181" width="85.188" height="5.007" rx="2.504" transform="translate(20.112 59.614)" fill="#e4ecf9"/>
        <rect id="Rectangle_182" data-name="Rectangle 182" width="85.188" height="5.007" rx="2.504" transform="translate(20.112 70.311)" fill="#e4ecf9"/>
        <path id="Path_486" data-name="Path 486" d="M238.671,264.247v0a3.1,3.1,0,0,1-.655.539L180.2,300.465h-.262a4.647,4.647,0,0,1-1.379-.2l-.181-.058a4.71,4.71,0,0,1-1.96-1.3c-.05-.054-.1-.112-.15-.173a4.368,4.368,0,0,1-.4-.558c-.042-.065-.077-.131-.116-.2s-.073-.138-.1-.208a4.733,4.733,0,0,1-.47-2.061V229.219a4.741,4.741,0,0,1,1.733-3.671.275.275,0,0,1,.031-.023l.246-.188a4.719,4.719,0,0,1,2.747-.875h1.086l5.077,3.132,46.8,28.877,1.76,1.086,3.359,2.072a3.116,3.116,0,0,1,.655.539v0A3.043,3.043,0,0,1,238.671,264.247Z" transform="translate(-175.179 -179.897)" fill="#0086e6"/>
        <path id="Path_487" data-name="Path 487" d="M377.6,229.219v66.489c0,.081,0,.162-.008.246,0,.039,0,.077-.008.116s0,.073-.008.112c0,.015,0,.031,0,.046s-.008.05-.012.073c0,.058-.015.115-.023.173s-.019.112-.031.166c0,.008,0,.019,0,.027a.463.463,0,0,1-.016.054.176.176,0,0,1-.012.062.6.6,0,0,1-.019.081c-.012.05-.023.1-.039.146a.069.069,0,0,1-.008.027c-.023.084-.05.169-.081.25a.014.014,0,0,1,0,.012c-.015.042-.027.081-.046.123s-.027.069-.043.108a.252.252,0,0,0-.011.031c-.046.1-.093.211-.147.312-.015.031-.034.069-.054.1s-.039.065-.058.1-.034.065-.058.1c-.039.065-.081.131-.124.192-.027.043-.053.077-.077.116-.066.089-.131.169-.2.25-.05.062-.1.119-.15.173s-.1.112-.158.166c-.023.027-.05.05-.077.077a.558.558,0,0,1-.073.065c-.027.027-.058.054-.088.081-.008.008-.019.015-.027.023-.073.065-.15.127-.227.185a.1.1,0,0,0-.023.019c-.062.042-.123.089-.189.131-.023.015-.042.031-.062.043s-.069.046-.1.065a.65.65,0,0,1-.084.05,1.068,1.068,0,0,1-.093.054,4.3,4.3,0,0,1-.678.312c-.015,0-.03.012-.042.015s-.034.012-.05.015c-.054.02-.108.039-.166.054-.1.031-.193.054-.289.077l-.15.035a.791.791,0,0,1-.1.015l-.12.023h-.011c-.034,0-.069.011-.1.015-.015,0-.031,0-.046,0l-.084.011c-.015,0-.031,0-.05,0l-.178.012c-.084,0-.169.008-.254.008h-.262L314.761,264.79a2.992,2.992,0,0,1-.651-.539v0a3.035,3.035,0,0,1,0-4.075v0a3.006,3.006,0,0,1,.651-.539l3.355-2.072,1.76-1.086,46.8-28.877,5.077-3.132h1.086a3.2,3.2,0,0,1,.339.016.167.167,0,0,1,.062,0c.108.008.219.019.323.034l.074.012c.092.015.185.035.273.058a.484.484,0,0,1,.069.015c.112.027.22.058.327.092s.2.069.3.108a3.8,3.8,0,0,1,.4.189,2.235,2.235,0,0,1,.216.116,3.026,3.026,0,0,1,.355.231s0,0,0,0l.247.188a.27.27,0,0,1,.03.023,2.382,2.382,0,0,1,.181.158c.046.039.089.081.131.123a4.185,4.185,0,0,1,.369.408c.054.066.1.131.15.2a4.465,4.465,0,0,1,.5.886c.039.084.073.173.108.262,0,0,0,.008,0,.011a4.361,4.361,0,0,1,.135.435c.019.073.035.143.05.216.012.058.023.112.031.17s.02.115.027.173a1.881,1.881,0,0,1,.023.208,1.369,1.369,0,0,1,.012.177C377.594,229.053,377.6,229.138,377.6,229.219Z" transform="translate(-250.618 -179.897)" fill="#0086e6"/>
        <path id="Path_488" data-name="Path 488" d="M302.159,330.5v.692a4.865,4.865,0,0,1-4.757,4.965H179.936a4.865,4.865,0,0,1-4.757-4.965V330.5L235.6,290.749a5.553,5.553,0,0,1,6.14,0Z" transform="translate(-175.179 -215.59)" fill="#474747" opacity="0.29"/>
        <path id="Path_489" data-name="Path 489" d="M302.159,333.079v.662A4.758,4.758,0,0,1,297.4,338.5H179.936a4.757,4.757,0,0,1-4.757-4.757v-.662L235.6,295a5.757,5.757,0,0,1,6.14,0Z" transform="translate(-175.179 -217.931)" fill="#007ad1"/>
        <rect id="Rectangle_183" data-name="Rectangle 183" width="39.48" height="5.007" rx="2.504" transform="translate(20.112 16.825)" fill="#0086e6"/>
      </g>
    </g>
    <path id="Path_535" data-name="Path 535" d="M408.3,93.589l2.09-1.1a.645.645,0,0,1,.937.68l-.4,2.328a.645.645,0,0,0,.185.571l1.691,1.649a.645.645,0,0,1-.358,1.1l-2.337.339a.645.645,0,0,0-.486.354l-1.045,2.117a.645.645,0,0,1-1.157,0l-1.045-2.117a.645.645,0,0,0-.486-.354l-2.337-.339a.645.645,0,0,1-.358-1.1l1.691-1.649a.645.645,0,0,0,.185-.571l-.4-2.328a.645.645,0,0,1,.937-.68l2.09,1.1A.645.645,0,0,0,408.3,93.589Z" transform="translate(-162.577 6.078)" fill="#4786d1"/>
    <g id="Group_127" data-name="Group 127" transform="translate(96.684 202.728)">
      <path id="Path_536" data-name="Path 536" d="M112.368,374.11a4,4,0,1,1,4-4A4,4,0,0,1,112.368,374.11Zm0-6.9a2.9,2.9,0,1,0,2.9,2.9A2.9,2.9,0,0,0,112.368,367.21Z" transform="translate(-108.368 -366.11)" fill="#4786d1"/>
      <path id="Path_537" data-name="Path 537" d="M117.16,372.865a2.037,2.037,0,1,1-2.037-2.037A2.037,2.037,0,0,1,117.16,372.865Z" transform="translate(-111.123 -368.865)" fill="#4786d1"/>
    </g>
    <path id="Path_538" data-name="Path 538" d="M316.373,426.335a2.006,2.006,0,1,1-2.006-2.006A2.006,2.006,0,0,1,316.373,426.335Z" transform="translate(-123.081 -193.174)" fill="#4786d1"/>
    <path id="Path_539" data-name="Path 539" d="M243.013,75.284a2.006,2.006,0,1,1-2.006-2.006A2.006,2.006,0,0,1,243.013,75.284Z" transform="translate(-105.02 -8.471)" fill="#4786d1"/>
  </g>
</svg>
