<svg width="1408" height="60" viewBox="0 0 1408 60" fill="none" xmlns="http://www.w3.org/2000/svg">
<g style="mix-blend-mode:overlay">
<path d="M343.852 1.5911C343.852 2.81315 342.869 3.79423 341.645 3.79423C340.42 3.79423 339.437 2.81315 339.437 1.5911C339.437 0.369051 340.42 -0.61203 341.645 -0.61203C342.869 -0.61203 343.852 0.369051 343.852 1.5911Z" fill="#1e1e20"/>
<path d="M423.878 50.1805C423.878 51.4026 422.895 52.3837 421.67 52.3837C420.446 52.3837 419.463 51.4026 419.463 50.1805C419.463 48.9585 420.446 47.9774 421.67 47.9774C422.895 47.9774 423.878 48.9585 423.878 50.1805Z" fill="#1e1e20"/>
<path d="M281.764 -0.612024C281.764 1.53947 280.005 3.2951 277.849 3.2951C275.693 3.2951 273.934 1.53947 273.934 -0.612024C273.934 -2.76352 275.693 -4.51915 277.849 -4.51915C280.005 -4.51915 281.764 -2.76352 281.764 -0.612024Z" fill="#1e1e20"/>
<path d="M421.67 50.1805L341.645 1.59112L405.906 -87.9628" stroke="#1e1e20" stroke-width="0.5" stroke-miterlimit="10"/>
<path d="M277.849 -0.61203L341.645 1.5911" stroke="#1e1e20" stroke-width="0.5" stroke-miterlimit="10"/>
<path d="M214.277 6.53092C214.277 7.75297 213.294 8.73408 212.069 8.73408C210.845 8.73408 209.862 7.75297 209.862 6.53092C209.862 5.30887 210.845 4.32779 212.069 4.32779C213.294 4.32779 214.277 5.30887 214.277 6.53092Z" fill="#1e1e20"/>
<path d="M92.7728 199.667L155.344 281.114L193.96 180.028L212.069 6.53091L239.061 -74.9506" stroke="#1e1e20" stroke-width="0.5" stroke-miterlimit="10"/>
<path d="M212.069 6.53091L101.879 71.5578L193.96 180.028" stroke="#1e1e20" stroke-width="0.5" stroke-miterlimit="10"/>
<path d="M1007.32 86.8592L1069.91 168.323L1108.53 67.2376L1126.63 -106.276L1153.63 -187.741" stroke="#1e1e20" stroke-width="0.5" stroke-miterlimit="10"/>
<path d="M1126.63 -106.276L1016.44 -41.2323L1108.53 67.2376" stroke="#1e1e20" stroke-width="0.5" stroke-miterlimit="10"/>
<path d="M59.5037 -147.447L-95.4075 -66.706L-58.4303 -189.909L22.0263 -37.6522L-53.6529 67.5818" stroke="#1e1e20" stroke-width="0.5" stroke-miterlimit="10"/>
</g>
<path style="mix-blend-mode:screen" d="M288.68 47.3061C288.68 53.795 198.686 59.0447 87.6849 59.0447C-23.3158 59.0447 -113.293 53.7778 -113.293 47.3061C-113.293 40.8344 -23.3158 35.5675 87.6849 35.5675C198.686 35.5675 288.68 40.8344 288.68 47.3061Z" fill="url(#paint0_radial_84_1119)"/>
<path style="mix-blend-mode:screen" d="M1408 25.1371C1408 35.3266 1289.17 43.5711 1142.57 43.5711C995.973 43.5711 877.159 35.3266 877.159 25.1371C877.159 14.9476 995.99 6.70306 1142.57 6.70306C1289.15 6.70306 1408 14.9476 1408 25.1371Z" fill="url(#paint1_radial_84_1119)"/>
<g style="mix-blend-mode:overlay">
<path d="M1140.28 28.2008C1140.28 29.9908 1138.83 31.4366 1137.03 31.4366C1135.24 31.4366 1133.79 29.9908 1133.79 28.2008C1133.79 26.4107 1135.24 24.9649 1137.03 24.9649C1138.83 24.9649 1140.28 26.4107 1140.28 28.2008Z" fill="#1e1e20"/>
<path d="M993.265 22.6586C995.075 22.6586 996.542 21.1944 996.542 19.3883C996.542 17.5822 995.075 16.118 993.265 16.118C991.455 16.118 989.988 17.5822 989.988 19.3883C989.988 21.1944 991.455 22.6586 993.265 22.6586Z" fill="#1e1e20"/>
<path d="M914.223 40.6795C914.223 42.0565 913.102 43.1924 911.705 43.1924C910.308 43.1924 909.187 42.0737 909.187 40.6795C909.187 39.2853 910.308 38.1838 911.705 38.1838C913.102 38.1838 914.223 39.3026 914.223 40.6795Z" fill="#1e1e20"/>
<path d="M816.847 4.58599C816.847 5.70477 815.933 6.61699 814.812 6.61699C813.691 6.61699 812.777 5.70477 812.777 4.58599C812.777 3.46721 813.691 2.55496 814.812 2.55496C815.933 2.55496 816.847 3.46721 816.847 4.58599Z" fill="#1e1e20"/>
<path d="M614.852 55.74C614.852 57.5645 613.369 59.0447 611.541 59.0447C609.712 59.0447 608.229 57.5645 608.229 55.74C608.229 53.9155 609.712 52.4181 611.541 52.4181C613.369 52.4181 614.852 53.8983 614.852 55.74Z" fill="#1e1e20"/>
<path d="M481.206 57.0653C481.206 58.8726 479.74 60.3184 477.947 60.3184C476.153 60.3184 474.687 58.8554 474.687 57.0653C474.687 55.2753 476.153 53.8123 477.947 53.8123C479.74 53.8123 481.206 55.2753 481.206 57.0653Z" fill="#1e1e20"/>
<path d="M255.411 28.2008C255.411 29.8876 254.031 31.2645 252.341 31.2645C250.65 31.2645 249.271 29.8876 249.271 28.2008C249.271 26.514 250.65 25.1371 252.341 25.1371C254.031 25.1371 255.411 26.514 255.411 28.2008Z" fill="#1e1e20"/>
<path d="M90.5651 47.3061C90.5651 48.8896 89.2716 50.1805 87.6849 50.1805C86.0982 50.1805 84.8047 48.8896 84.8047 47.3061C84.8047 45.7226 86.0982 44.4317 87.6849 44.4317C89.2716 44.4317 90.5651 45.7226 90.5651 47.3061Z" fill="#1e1e20"/>
<path d="M739.305 78.5286L814.812 4.58598L911.722 40.6795L900.149 -22.0754L953.925 -129.926L1039.23 -97.9286L1098.51 -155.124L1051.85 -32.6263L1124.98 -49.1843L1137.03 28.2008L993.265 19.3882L988.539 119.373L1066.62 90.663L1155.92 103.503L1142.57 166.895L1151.68 233.385L1039.23 221.56L1018.89 290.305L967.791 191.887L864.017 166.981L873.537 104.484L824.746 121.799L739.305 78.5286ZM739.305 78.5286L678.389 128.495L611.523 55.74L544.709 69.63L477.947 57.0653L411.029 80.6457L343.473 72.6765L258.032 94.6906L252.358 28.2008L216.26 -61.1638L137.235 -19.8034L123.627 -167.31L32.0466 -100.682L6.15908 -169.135L-53.653 -129.926L-18.5729 -231.614L-90.0438 -208.498L-104.341 -135.124L61.6939 -39.8381L87.6849 47.3061L-19.8147 4.58598L-81.2824 -11.0081L-87.1119 125.689L11.2469 94.6906L150.722 104.088L112.106 156.206L139.529 239.529L49.8626 212.472L-35.4576 241.974L29.1319 303.128L-56.1365 368.585L-102.272 230.941L-196.716 233.023" stroke="#1e1e20" stroke-width="0.5" stroke-miterlimit="10"/>
<path d="M150.722 104.088L137.235 -19.8034L258.032 94.6907L87.685 47.3061L-35.4575 241.974L11.2469 94.6907L-81.2824 -11.0081L-53.653 -129.926L-19.8147 4.586L6.15911 -169.134L-18.5729 -231.614L-151.011 -300.341L-90.0438 -208.498L-164.809 -152.611L-104.341 -135.124L-181.78 -79.7527L-81.2824 -11.0081L-195.284 73.7265L-87.1118 125.689L-102.272 230.941L-158.617 306.622" stroke="#1e1e20" stroke-width="0.5" stroke-miterlimit="10"/>
<path d="M477.947 57.0653L566.457 137.703L678.389 128.495L824.746 121.8L814.812 4.58598L900.149 -22.0754L1039.23 -97.9286L1101.68 -261.89L1274.15 -306.383" stroke="#1e1e20" stroke-width="0.5" stroke-miterlimit="10"/>
<path d="M1051.85 -32.6264L993.265 19.3882L953.925 -129.926" stroke="#1e1e20" stroke-width="0.5" stroke-miterlimit="10"/>
<path d="M873.537 104.484L911.722 40.6795L1066.62 90.6631L1039.23 221.56L1147.81 321.372L1243.29 276.931" stroke="#1e1e20" stroke-width="0.5" stroke-miterlimit="10"/>
<path d="M1256.33 75.9812L1155.92 103.503L1137.03 28.2008L1256.33 -4.02002" stroke="#1e1e20" stroke-width="0.5" stroke-miterlimit="10"/>
<path d="M566.457 137.703L611.523 55.74" stroke="#1e1e20" stroke-width="0.5" stroke-miterlimit="10"/>
<path d="M1066.62 90.6631L1137.03 28.2008" stroke="#1e1e20" stroke-width="0.5" stroke-miterlimit="10"/>
</g>
<g style="mix-blend-mode:overlay">
<path d="M1140.28 28.2008C1140.28 29.9908 1138.83 31.4366 1137.03 31.4366C1135.24 31.4366 1133.79 29.9908 1133.79 28.2008C1133.79 26.4107 1135.24 24.9649 1137.03 24.9649C1138.83 24.9649 1140.28 26.4107 1140.28 28.2008Z" fill="#1e1e20"/>
<path d="M993.265 22.6586C995.075 22.6586 996.542 21.1944 996.542 19.3883C996.542 17.5822 995.075 16.118 993.265 16.118C991.455 16.118 989.988 17.5822 989.988 19.3883C989.988 21.1944 991.455 22.6586 993.265 22.6586Z" fill="#1e1e20"/>
<path d="M914.223 40.6795C914.223 42.0565 913.102 43.1924 911.705 43.1924C910.308 43.1924 909.187 42.0737 909.187 40.6795C909.187 39.2853 910.308 38.1838 911.705 38.1838C913.102 38.1838 914.223 39.3026 914.223 40.6795Z" fill="#1e1e20"/>
<path d="M816.847 4.58599C816.847 5.70477 815.933 6.61699 814.812 6.61699C813.691 6.61699 812.777 5.70477 812.777 4.58599C812.777 3.46721 813.691 2.55496 814.812 2.55496C815.933 2.55496 816.847 3.46721 816.847 4.58599Z" fill="#1e1e20"/>
<path d="M614.852 55.74C614.852 57.5645 613.369 59.0447 611.541 59.0447C609.712 59.0447 608.229 57.5645 608.229 55.74C608.229 53.9155 609.712 52.4181 611.541 52.4181C613.369 52.4181 614.852 53.8983 614.852 55.74Z" fill="#1e1e20"/>
<path d="M481.206 57.0653C481.206 58.8726 479.74 60.3184 477.947 60.3184C476.153 60.3184 474.687 58.8554 474.687 57.0653C474.687 55.2753 476.153 53.8123 477.947 53.8123C479.74 53.8123 481.206 55.2753 481.206 57.0653Z" fill="#1e1e20"/>
<path d="M255.411 28.2008C255.411 29.8876 254.031 31.2645 252.341 31.2645C250.65 31.2645 249.271 29.8876 249.271 28.2008C249.271 26.514 250.65 25.1371 252.341 25.1371C254.031 25.1371 255.411 26.514 255.411 28.2008Z" fill="#1e1e20"/>
<path d="M90.5651 47.3061C90.5651 48.8896 89.2716 50.1805 87.6849 50.1805C86.0982 50.1805 84.8047 48.8896 84.8047 47.3061C84.8047 45.7226 86.0982 44.4317 87.6849 44.4317C89.2716 44.4317 90.5651 45.7226 90.5651 47.3061Z" fill="#1e1e20"/>
</g>
<defs>
<radialGradient id="paint0_radial_84_1119" cx="0" cy="0" r="1" gradientUnits="userSpaceOnUse" gradientTransform="translate(82.1604 52.1983) scale(200.848 11.6799)">
<stop offset="0.02" stop-color="#FFC0AB"/>
<stop offset="0.06" stop-color="#FF602B"/>
<stop offset="0.08" stop-color="#F8541D"/>
<stop offset="0.11" stop-color="#EE4107"/>
<stop offset="0.13" stop-color="#EB3B00"/>
<stop offset="0.16" stop-color="#C53100"/>
<stop offset="0.2" stop-color="#9C2700"/>
<stop offset="0.24" stop-color="#771D00"/>
<stop offset="0.29" stop-color="#561500"/>
<stop offset="0.34" stop-color="#3B0E00"/>
<stop offset="0.4" stop-color="#250900"/>
<stop offset="0.47" stop-color="#140500"/>
<stop offset="0.55" stop-color="#080200"/>
<stop offset="0.67" stop-color="#010000"/>
<stop offset="1"/>
</radialGradient>
<radialGradient id="paint1_radial_84_1119" cx="0" cy="0" r="1" gradientUnits="userSpaceOnUse" gradientTransform="translate(1142.59 17.584) scale(265.429 18.5425)">
<stop offset="0.02" stop-color="#AAFDFF"/>
<stop offset="0.06" stop-color="#55A4FF"/>
<stop offset="0.09" stop-color="#4095F9"/>
<stop offset="0.14" stop-color="#1D7AF0"/>
<stop offset="0.19" stop-color="#076AEB"/>
<stop offset="0.22" stop-color="#0065E9"/>
<stop offset="0.27" stop-color="#0050BA"/>
<stop offset="0.33" stop-color="#003D8E"/>
<stop offset="0.4" stop-color="#002D68"/>
<stop offset="0.46" stop-color="#001F47"/>
<stop offset="0.54" stop-color="#00132D"/>
<stop offset="0.62" stop-color="#000A19"/>
<stop offset="0.71" stop-color="#00040A"/>
<stop offset="0.82" stop-color="#000102"/>
<stop offset="1"/>
</radialGradient>
</defs>
<g style="mix-blend-mode:overlay">
<path d="M1002.64 32.9008C1003.61 34.6564 1002.95 36.8595 1001.19 37.8062C999.431 38.7701 997.224 38.116 996.275 36.3604C995.309 34.6048 995.965 32.4016 997.724 31.455C999.483 30.4911 1001.69 31.1452 1002.64 32.9008Z" fill="#1e1e20"/>
<path d="M1079.54 148.393L985.979 143.952L999.449 34.6392" stroke="#1e1e20" stroke-width="0.5" stroke-miterlimit="10"/>
<path d="M712.444 32.2295C712.478 33.727 711.288 34.949 709.788 34.9834C708.287 35.0179 707.063 33.8302 707.028 32.3328C706.994 30.8353 708.184 29.6133 709.684 29.5789C711.185 29.5444 712.409 30.7321 712.444 32.2295Z" fill="#1e1e20"/>
<path d="M723.603 135.002L663.221 100.01L709.736 32.2812" stroke="#1e1e20" stroke-width="0.5" stroke-miterlimit="10"/>
<path d="M184.984 1.55779C184.984 3.26177 183.587 4.65595 181.879 4.65595C180.172 4.65595 178.775 3.26177 178.775 1.55779C178.775 -0.146199 180.172 -1.54037 181.879 -1.54037C183.587 -1.54037 184.984 -0.146199 184.984 1.55779Z" fill="#1e1e20"/>
<path d="M172.773 129.667L235.344 211.114L273.96 110.028L292.069 -63.4691L319.061 -144.951" stroke="#1e1e20" stroke-width="0.5" stroke-miterlimit="10"/>
<path d="M292.069 -63.4691L181.879 1.55779L273.96 110.028" stroke="#1e1e20" stroke-width="0.5" stroke-miterlimit="10"/>
<path d="M181.879 1.55779L96.7142 -6.39417" stroke="#1e1e20" stroke-width="0.5" stroke-miterlimit="10"/>
<path d="M1089.53 16.8592C1089.53 18.0813 1088.55 19.0624 1087.32 19.0624C1086.1 19.0624 1085.11 18.0813 1085.11 16.8592C1085.11 15.6372 1086.1 14.6561 1087.32 14.6561C1088.55 14.6561 1089.53 15.6372 1089.53 16.8592Z" fill="#1e1e20"/>
<path d="M1087.32 16.8592L1149.91 98.3235L1188.53 -2.76245L1206.63 -176.276L1233.63 -257.741" stroke="#1e1e20" stroke-width="0.5" stroke-miterlimit="10"/>
</g>
<path style="mix-blend-mode:screen" d="M609.566 10.6457C609.566 14.4668 556.498 17.5649 491.046 17.5649C425.594 17.5649 372.526 14.4668 372.526 10.6457C372.526 6.82464 425.594 3.7265 491.046 3.7265C556.498 3.7265 609.566 6.82464 609.566 10.6457Z" fill="url(#paint0_radial_84_1351)"/>
<path style="mix-blend-mode:screen" d="M867.527 58.5122C867.527 62.6947 818.667 66.0855 758.389 66.0855C698.112 66.0855 649.269 62.6947 649.269 58.5122C649.269 54.3297 698.129 50.9389 758.389 50.9389C818.65 50.9389 867.527 54.3297 867.527 58.5122Z" fill="url(#paint1_radial_84_1351)"/>
<g style="mix-blend-mode:overlay">
<path d="M1238.96 33.5032C1238.96 35.1728 1237.59 36.5326 1235.92 36.5326C1234.25 36.5326 1232.88 35.1728 1232.88 33.5032C1232.88 31.8337 1234.25 30.474 1235.92 30.474C1237.59 30.474 1238.96 31.8337 1238.96 33.5032Z" fill="#1e1e20"/>
<path d="M1071.23 49.3727C1071.23 50.8529 1070.02 52.0577 1068.54 52.0577C1067.06 52.0577 1065.85 50.8529 1065.85 49.3727C1065.85 47.8924 1067.06 46.6876 1068.54 46.6876C1070.02 46.6876 1071.23 47.8924 1071.23 49.3727Z" fill="#1e1e20"/>
<path d="M1148.79 20.6631C1148.79 21.8507 1147.82 22.8318 1146.62 22.8318C1145.41 22.8318 1144.44 21.8679 1144.44 20.6631C1144.44 19.4582 1145.41 18.4944 1146.62 18.4944C1147.82 18.4944 1148.79 19.4582 1148.79 20.6631Z" fill="#1e1e20"/>
<path d="M955.555 34.4843C955.555 35.6031 954.658 36.4981 953.537 36.4981C952.416 36.4981 951.52 35.6031 951.52 34.4843C951.52 33.3655 952.416 32.4706 953.537 32.4706C954.658 32.4706 955.555 33.3655 955.555 34.4843Z" fill="#1e1e20"/>
<path d="M821.841 8.52867C821.841 9.92284 820.702 11.0588 819.305 11.0588C817.908 11.0588 816.77 9.92284 816.77 8.52867C816.77 7.1345 817.908 5.9985 819.305 5.9985C820.702 5.9985 821.841 7.1345 821.841 8.52867Z" fill="#1e1e20"/>
<path d="M907.281 51.7995C907.281 53.1937 906.143 54.3297 904.746 54.3297C903.349 54.3297 902.211 53.1937 902.211 51.7995C902.211 50.4054 903.349 49.2694 904.746 49.2694C906.143 49.2694 907.281 50.4054 907.281 51.7995Z" fill="#1e1e20"/>
<path d="M761.287 58.495C761.287 60.0957 759.993 61.3866 758.389 61.3866C756.785 61.3866 755.492 60.0957 755.492 58.495C755.492 56.8943 756.785 55.6034 758.389 55.6034C759.993 55.6034 761.287 56.8943 761.287 58.495Z" fill="#1e1e20"/>
<path d="M627.072 -0.369934C627.072 0.920964 626.02 1.9881 624.709 1.9881C623.398 1.9881 622.346 0.938176 622.346 -0.369934C622.346 -1.67804 623.398 -2.72797 624.709 -2.72797C626.02 -2.72797 627.072 -1.67804 627.072 -0.369934Z" fill="#1e1e20"/>
<path d="M493.167 10.6457C493.167 11.8161 492.219 12.78 491.029 12.78C489.839 12.78 488.89 11.8333 488.89 10.6457C488.89 9.45806 489.839 8.51141 491.029 8.51141C492.219 8.51141 493.167 9.45806 493.167 10.6457Z" fill="#1e1e20"/>
<path d="M425.318 2.67655C425.318 3.69206 424.49 4.50107 423.49 4.50107C422.49 4.50107 421.662 3.67485 421.662 2.67655C421.662 1.67826 422.49 0.852112 423.49 0.852112C424.49 0.852112 425.318 1.67826 425.318 2.67655Z" fill="#1e1e20"/>
<path d="M340.654 24.6907C340.654 26.1365 339.481 27.3069 338.032 27.3069C336.583 27.3069 335.411 26.1365 335.411 24.6907C335.411 23.2449 336.583 22.0745 338.032 22.0745C339.481 22.0745 340.654 23.2449 340.654 24.6907Z" fill="#1e1e20"/>
<path d="M232.93 34.0884C232.93 35.3105 231.947 36.2916 230.722 36.2916C229.498 36.2916 228.515 35.3105 228.515 34.0884C228.515 32.8664 229.498 31.8853 230.722 31.8853C231.947 31.8853 232.93 32.8664 232.93 34.0884Z" fill="#1e1e20"/>
<path d="M94.5066 24.6907C94.5066 26.4979 93.0406 27.9438 91.2296 27.9438C89.4187 27.9438 87.9528 26.4807 87.9528 24.6907C87.9528 22.9006 89.4187 21.4377 91.2296 21.4377C93.0406 21.4377 94.5066 22.9006 94.5066 24.6907Z" fill="#1e1e20"/>
<path d="M819.305 8.52862L894.812 -65.414L991.722 -29.3205L980.149 -92.0754L1033.92 -199.926L1119.23 -167.929L1178.51 -225.124L1131.85 -102.626L1204.98 -119.184L1217.03 -41.7992L1073.27 -50.6118L1068.54 49.3726L1146.62 20.663L1235.92 33.5032L1222.57 96.8949L1231.68 163.385L1119.23 151.56L1098.89 220.305L1047.79 121.887L944.017 96.9809L953.537 34.4843L904.746 51.7995L819.305 8.52862ZM819.305 8.52862L758.389 58.495L691.523 -14.26L624.709 -0.369997L557.947 -12.9347L491.029 10.6457L423.473 2.6765L338.032 24.6906L332.358 -41.7992L296.26 -131.164L217.235 -89.8034L203.627 -237.31L112.047 -170.682L86.1591 -239.135L26.347 -199.926L61.4271 -301.614L-10.0438 -278.498L-24.3415 -205.124L141.694 -109.838L167.685 -22.6939L60.1853 -65.414L-1.28245 -81.0081L-7.11186 55.6894L91.2469 24.6906L230.722 34.0884L192.106 86.2063L219.529 169.529L129.863 142.472L44.5424 171.974L109.132 233.128L23.8635 298.585L-22.2719 160.941L-116.716 163.023" stroke="#1e1e20" stroke-width="0.5" stroke-miterlimit="10"/>
<path d="M338.032 24.6907L192.106 86.2063L129.863 142.472L109.132 233.128L219.529 169.529L491.029 10.6457" stroke="#1e1e20" stroke-width="0.5" stroke-miterlimit="10"/>
<path d="M230.722 34.0884L217.235 -89.8034L338.032 24.6906L167.685 -22.6939L44.5425 171.974L91.2469 24.6906L-1.28242 -81.0081L26.347 -199.926L60.1853 -65.414L86.1591 -239.135L61.4271 -301.614L-71.0114 -370.341L-10.0438 -278.498L-84.8089 -222.611L-24.3414 -205.124L-101.78 -149.753L-1.28242 -81.0081L-115.284 3.72647L-7.11184 55.6894L-22.2718 160.941L-78.6173 236.622" stroke="#1e1e20" stroke-width="0.5" stroke-miterlimit="10"/>
<path d="M557.947 -12.9347L646.457 67.7034L758.389 58.495L904.746 51.7995L894.812 -65.414L980.149 -92.0754L1119.23 -167.929L1181.68 -331.89L1354.15 -376.383" stroke="#1e1e20" stroke-width="0.5" stroke-miterlimit="10"/>
<path d="M953.537 34.4843L991.722 -29.3205L1146.62 20.6631L1119.23 151.56L1227.81 251.372L1323.29 206.931" stroke="#1e1e20" stroke-width="0.5" stroke-miterlimit="10"/>
<path d="M1336.33 5.98124L1235.92 33.5032L1217.03 -41.7992L1336.33 -74.02" stroke="#1e1e20" stroke-width="0.5" stroke-miterlimit="10"/>
<path d="M338.032 24.6906L464.21 64.3815L624.709 -0.369995" stroke="#1e1e20" stroke-width="0.5" stroke-miterlimit="10"/>
<path d="M464.21 64.3815L423.473 2.67651" stroke="#1e1e20" stroke-width="0.5" stroke-miterlimit="10"/>
<path d="M646.457 67.7034L691.523 -14.26" stroke="#1e1e20" stroke-width="0.5" stroke-miterlimit="10"/>
<path d="M1047.79 121.887L1068.54 49.3727L944.017 96.981" stroke="#1e1e20" stroke-width="0.5" stroke-miterlimit="10"/>
<path d="M1068.54 49.3726L1222.57 96.8949L1373.69 30.4911" stroke="#1e1e20" stroke-width="0.5" stroke-miterlimit="10"/>
<path d="M1146.62 20.6631L1217.03 -41.7992" stroke="#1e1e20" stroke-width="0.5" stroke-miterlimit="10"/>
</g>
<g style="mix-blend-mode:overlay">
<path d="M1238.96 33.5032C1238.96 35.1728 1237.59 36.5326 1235.92 36.5326C1234.25 36.5326 1232.88 35.1728 1232.88 33.5032C1232.88 31.8337 1234.25 30.474 1235.92 30.474C1237.59 30.474 1238.96 31.8337 1238.96 33.5032Z" fill="#1e1e20"/>
<path d="M1071.23 49.3727C1071.23 50.8529 1070.02 52.0577 1068.54 52.0577C1067.06 52.0577 1065.85 50.8529 1065.85 49.3727C1065.85 47.8924 1067.06 46.6876 1068.54 46.6876C1070.02 46.6876 1071.23 47.8924 1071.23 49.3727Z" fill="#1e1e20"/>
<path d="M1148.79 20.6631C1148.79 21.8507 1147.82 22.8318 1146.62 22.8318C1145.41 22.8318 1144.44 21.8679 1144.44 20.6631C1144.44 19.4582 1145.41 18.4944 1146.62 18.4944C1147.82 18.4944 1148.79 19.4582 1148.79 20.6631Z" fill="#1e1e20"/>
<path d="M955.555 34.4843C955.555 35.6031 954.658 36.4981 953.537 36.4981C952.416 36.4981 951.52 35.6031 951.52 34.4843C951.52 33.3655 952.416 32.4706 953.537 32.4706C954.658 32.4706 955.555 33.3655 955.555 34.4843Z" fill="#1e1e20"/>
<path d="M821.841 8.52867C821.841 9.92284 820.702 11.0588 819.305 11.0588C817.908 11.0588 816.77 9.92284 816.77 8.52867C816.77 7.1345 817.908 5.9985 819.305 5.9985C820.702 5.9985 821.841 7.1345 821.841 8.52867Z" fill="#1e1e20"/>
<path d="M907.281 51.7995C907.281 53.1937 906.143 54.3297 904.746 54.3297C903.349 54.3297 902.211 53.1937 902.211 51.7995C902.211 50.4054 903.349 49.2694 904.746 49.2694C906.143 49.2694 907.281 50.4054 907.281 51.7995Z" fill="#1e1e20"/>
<path d="M761.287 58.495C761.287 60.0957 759.993 61.3866 758.389 61.3866C756.785 61.3866 755.492 60.0957 755.492 58.495C755.492 56.8943 756.785 55.6034 758.389 55.6034C759.993 55.6034 761.287 56.8943 761.287 58.495Z" fill="#1e1e20"/>
<path d="M627.072 -0.369934C627.072 0.920964 626.02 1.9881 624.709 1.9881C623.398 1.9881 622.346 0.938176 622.346 -0.369934C622.346 -1.67804 623.398 -2.72797 624.709 -2.72797C626.02 -2.72797 627.072 -1.67804 627.072 -0.369934Z" fill="#1e1e20"/>
<path d="M493.167 10.6457C493.167 11.8161 492.219 12.78 491.029 12.78C489.839 12.78 488.89 11.8333 488.89 10.6457C488.89 9.45806 489.839 8.51141 491.029 8.51141C492.219 8.51141 493.167 9.45806 493.167 10.6457Z" fill="#1e1e20"/>
<path d="M425.318 2.67655C425.318 3.69206 424.49 4.50107 423.49 4.50107C422.49 4.50107 421.662 3.67485 421.662 2.67655C421.662 1.67826 422.49 0.852112 423.49 0.852112C424.49 0.852112 425.318 1.67826 425.318 2.67655Z" fill="#1e1e20"/>
<path d="M340.654 24.6907C340.654 26.1365 339.481 27.3069 338.032 27.3069C336.583 27.3069 335.411 26.1365 335.411 24.6907C335.411 23.2449 336.583 22.0745 338.032 22.0745C339.481 22.0745 340.654 23.2449 340.654 24.6907Z" fill="#1e1e20"/>
<path d="M232.93 34.0884C232.93 35.3105 231.947 36.2916 230.722 36.2916C229.498 36.2916 228.515 35.3105 228.515 34.0884C228.515 32.8664 229.498 31.8853 230.722 31.8853C231.947 31.8853 232.93 32.8664 232.93 34.0884Z" fill="#1e1e20"/>
<path d="M94.5066 24.6907C94.5066 26.4979 93.0406 27.9438 91.2296 27.9438C89.4187 27.9438 87.9528 26.4807 87.9528 24.6907C87.9528 22.9006 89.4187 21.4377 91.2296 21.4377C93.0406 21.4377 94.5066 22.9006 94.5066 24.6907Z" fill="#1e1e20"/>
</g>
<defs>
<radialGradient id="paint0_radial_84_1351" cx="0" cy="0" r="1" gradientUnits="userSpaceOnUse" gradientTransform="translate(485.315 15.3544) scale(118.453 6.88841)">
<stop offset="0.02" stop-color="#FFC0AB"/>
<stop offset="0.06" stop-color="#FF602B"/>
<stop offset="0.08" stop-color="#F8541D"/>
<stop offset="0.11" stop-color="#EE4107"/>
<stop offset="0.13" stop-color="#EB3B00"/>
<stop offset="0.16" stop-color="#C53100"/>
<stop offset="0.2" stop-color="#9C2700"/>
<stop offset="0.24" stop-color="#771D00"/>
<stop offset="0.29" stop-color="#561500"/>
<stop offset="0.34" stop-color="#3B0E00"/>
<stop offset="0.4" stop-color="#250900"/>
<stop offset="0.47" stop-color="#140500"/>
<stop offset="0.55" stop-color="#080200"/>
<stop offset="0.67" stop-color="#010000"/>
<stop offset="1"/>
</radialGradient>
<radialGradient id="paint1_radial_84_1351" cx="0" cy="0" r="1" gradientUnits="userSpaceOnUse" gradientTransform="translate(758.389 51.5458) scale(109.121 7.62303)">
<stop offset="0.02" stop-color="#AAFDFF"/>
<stop offset="0.06" stop-color="#55A4FF"/>
<stop offset="0.09" stop-color="#4095F9"/>
<stop offset="0.14" stop-color="#1D7AF0"/>
<stop offset="0.19" stop-color="#076AEB"/>
<stop offset="0.22" stop-color="#0065E9"/>
<stop offset="0.27" stop-color="#0050BA"/>
<stop offset="0.33" stop-color="#003D8E"/>
<stop offset="0.4" stop-color="#002D68"/>
<stop offset="0.46" stop-color="#001F47"/>
<stop offset="0.54" stop-color="#00132D"/>
<stop offset="0.62" stop-color="#000A19"/>
<stop offset="0.71" stop-color="#00040A"/>
<stop offset="0.82" stop-color="#000102"/>
<stop offset="1"/>
</radialGradient>
</defs>
</svg>
