<svg xmlns="http://www.w3.org/2000/svg" width="20.186" height="16.405" viewBox="0 0 20.186 16.405">
  <path id="iconTwitter" d="M20.186,2.764a8.28,8.28,0,0,1-2.379.652,4.154,4.154,0,0,0,1.821-2.291,8.293,8.293,0,0,1-2.63,1A4.145,4.145,0,0,0,9.941,5.907,11.757,11.757,0,0,1,1.405,1.58,4.146,4.146,0,0,0,2.687,7.109,4.125,4.125,0,0,1,.811,6.591c0,.017,0,.035,0,.052A4.144,4.144,0,0,0,4.133,10.7a4.151,4.151,0,0,1-1.87.071,4.145,4.145,0,0,0,3.869,2.876A8.31,8.31,0,0,1,.988,15.424,8.425,8.425,0,0,1,0,15.366a11.722,11.722,0,0,0,6.348,1.861A11.7,11.7,0,0,0,18.131,5.444q0-.269-.012-.536a8.418,8.418,0,0,0,2.067-2.144" transform="translate(0 -0.822)" fill="#55acee"/>
</svg>
