<svg xmlns="http://www.w3.org/2000/svg" width="256" height="76.65" viewBox="0 0 256 76.65">
  <g id="nTask_Logo_Full-256" data-name="nTask Logo Full-256" transform="translate(0 -0.325)">
    <g id="Group_4929" data-name="Group 4929" transform="translate(0 0.325)">
      <path id="Path_1" data-name="Path 1" d="M66.29,3.419a21.1,21.1,0,0,0-3.194.044c-1.414.209-2.9.489-4.483.82a.183.183,0,0,0-.186.187,15.513,15.513,0,0,0-2.8,2.048,21.33,21.33,0,0,0-4.859,5.956c-1.307,2.606-.747,4.654.561,7.074,1.495,2.792,2.8,5.4,4.3,8.19,1.122,2.234,2.243,4.468,3.178,6.7a24.258,24.258,0,0,0,1.495-3.164c.747-1.862,1.682-3.723,2.616-5.585a19,19,0,0,1,1.5-2.792c.186-.372.56-.744.747-1.117A9.422,9.422,0,0,1,71.507,17.5a7.089,7.089,0,0,1,2.8,0,2.229,2.229,0,0,1,1.7,1.059V11.423C75.446,4.536,68.158,3.606,66.29,3.419Z" transform="translate(-2.938 -0.211)" fill="#009d6e"/>
      <path id="Path_2" data-name="Path 2" d="M88.766,6.745a11.6,11.6,0,0,0-6.727-5.212A35.465,35.465,0,0,0,66.155.416,29.042,29.042,0,0,0,55.69,3.953a31.306,31.306,0,0,1,4.468-.7,21.1,21.1,0,0,1,3.194-.044c1.868.187,9.157,1.117,9.718,8V57.377c0,1.489-.747,2.048-2.243,2.048-3.924,0-6.727-1.489-8.6-5.026-2.617-5.77-5.42-11.541-8.223-17.312l-3.364-6.7c-1.682-3.537-3.55-6.887-5.419-10.424A8.624,8.624,0,0,1,44.29,18.1c-1.869-3.351-3.738-6.887-6.541-9.307a27.3,27.3,0,0,0-13.455-5.77A35.08,35.08,0,0,0,8.409,4.139c-.374.186-.747.186-.934.372C1.868,6.932,0,11.585,0,17.542V60.728a20.364,20.364,0,0,0,.374,4.84A8.144,8.144,0,0,0,1.682,69.1,11.234,11.234,0,0,0,2.99,70.966l.186.187.374.372.561.559c2.447,1.9,6.289,3.491,12.154,4.007l.111.01a78.722,78.722,0,0,0,8.907-.041c.27-.028.54-.056.787-.061l.072-.007H24.481c-.187,0-.374-.187-.747-.187-.187,0-.375-.186-.748-.186H22.8c-.187,0-.374-.187-.561-.187h-.186c-.561-.372-1.122-.558-1.682-.93-2.243-1.675-2.99-5.026-3.177-7.446V21.637c.186-.93.747-1.3,1.868-1.489a7.124,7.124,0,0,1,2.8,0,9.424,9.424,0,0,1,6.354,4.281c.186.373.56.745.747,1.118a19.04,19.04,0,0,1,1.495,2.792c.935,1.861,1.682,3.723,2.617,5.584.56,1.3,1.307,2.606,1.868,3.723,1.682,3.351,3.177,6.7,4.859,9.865,1.495,3.165,3.177,6.515,4.671,9.68,1.682,3.351,3.364,6.7,4.859,10.053,3.364,6.887,9.719,8.935,17.007,9.307,10.465.558,16.257-1.3,19.621-4.1l.561-.559.374-.372.186-.187a10.745,10.745,0,0,0,2.8-6.887l.748-49.7A15.393,15.393,0,0,0,88.766,6.745Z" transform="translate(0 0)" fill="#00cc90"/>
      <path id="Path_3" data-name="Path 3" d="M44.04,64.838a9.754,9.754,0,0,0-.747-3.164,17.975,17.975,0,0,1-.934-2.048c-.935-1.861-1.682-3.723-2.617-5.4-1.308-2.792-2.617-5.4-3.924-8.19-.374,0-.561.186-.561.372-.374.744-.935,1.489-1.308,2.233a46.931,46.931,0,0,1-2.429,4.1c-2.616,4.654-5.606,10.611-11.96,8.935a1.288,1.288,0,0,1-.935-.744c0-.187-.186-.559-.186-.744l-.172-2.275V69.93c.186,2.42.934,5.771,3.177,7.446.56.372,1.121.558,1.682.93h.186c.187,0,.374.187.561.187h.186c.374,0,.561.186.748.186.374,0,.56.187.747.187h1.661c.717-.065,1.339-.142,1.9-.225v0a18.124,18.124,0,0,0,13.607-9.5l.015-.023c.072-.142.14-.3.211-.443.056-.116.113-.23.167-.349.1-.213.184-.432.274-.653.034-.083.071-.163.1-.248h0A9.586,9.586,0,0,0,44.04,65.4Z" transform="translate(-1.073 -2.874)" fill="#009d6e"/>
    </g>
    <g id="Group_1" data-name="Group 1" transform="translate(107.94 10.325)">
      <path id="Path_4" data-name="Path 4" d="M131.017,22.243V68.372H120.193V22.243H107.674V12.961h35.862v9.282Z" transform="translate(-107.674 -12.804)" fill="#fff"/>
      <path id="Path_5" data-name="Path 5" d="M171.13,33.58H181.3v36H171.13V64.9a12.9,12.9,0,0,1-11.107,5.813c-11.107,0-18.449-8.626-18.449-19.22s7.248-19.127,17.884-19.127c2.73,0,8.189.469,11.577,5.813V33.58ZM152.116,51.488a9.98,9.98,0,1,0,19.955,0,9.978,9.978,0,1,0-19.955,0Z" transform="translate(-109.665 -14.015)" fill="#fff"/>
      <path id="Path_6" data-name="Path 6" d="M210.894,42.106a8.493,8.493,0,0,0-5.93-2.438c-2.447,0-3.953,1.125-3.953,2.906,0,.938.376,2.344,3.294,3.282l2.448.75c2.824.938,7.06,2.344,9.13,5.157a10.1,10.1,0,0,1,1.788,6,11.793,11.793,0,0,1-4.047,9.095A15.311,15.311,0,0,1,202.8,70.7a18.189,18.189,0,0,1-14.025-6l5.365-6.188a11.04,11.04,0,0,0,8,4.125c2.824,0,4.989-1.406,4.989-3.938,0-2.25-1.787-3.188-3.2-3.657l-2.353-.844c-2.541-.938-5.553-2.063-7.718-4.313a9.675,9.675,0,0,1-2.73-6.938,10.855,10.855,0,0,1,3.765-8.157c2.824-2.25,6.495-2.531,9.413-2.531a18.114,18.114,0,0,1,11.483,3.844Z" transform="translate(-112.438 -14.009)" fill="#fff"/>
      <path id="Path_7" data-name="Path 7" d="M234.634,12.461V45.152l13.461-13.126h13.178L244.33,47.777l18.259,20.158h-13.46l-13.46-15.376-1.13,1.031V67.935H224.374V12.461Z" transform="translate(-114.529 -12.461)" fill="#fff"/>
    </g>
  </g>
</svg>
